#define icon-3_width 16
#define icon-3_height 16
static char icon-3_bits[] = {
  0x03, 0xF8, 0x01, 0x80, 0x00, 0x00, 0x00, 0x00, 0x00, 0x00, 0x00, 0x00, 
  0x00, 0x01, 0x80, 0x00, 0x80, 0x00, 0x00, 0x06, 0x90, 0x00, 0x00, 0x04, 
  0x00, 0x00, 0x00, 0x00, 0x00, 0x00, 0x00, 0x80, };
